# xmcd CD database file
#
# Track frame offsets:
#	150
#	15695
#	34083
#	55613
#	79878
#	102943
#	123713
#	144493
#
# Disc length: 2107 seconds
#
# Revision: 2
# Processed by: cddbd v1.5.1PL2 Copyright (c) Steve Scherf et al.
# Submitted via: CDex 1.60beta1-cs1
#
DISCID=65083908
DTITLE=TOKYO No.1 SOUL SET - young guys,gifted and slack!
DYEAR=1992
DGENRE=Soul
TTITLE0=SILLY JIVE TALKIN'TRASH
TTITLE1=THE BIG DUB
TTITLE2=YOUNG GUYS ALWAYS THINK ABOUT SOMETHING
TTITLE3=TOO DRINKTO LIVE
TTITLE4=SAN FRANCISCO
TTITLE5=MUSICIS GOOD FOR YOUR LIFE
TTITLE6=THE BIG PARTY
TTITLE7=IN THE PURDIE'S,BABY
EXTD=YEAR: 1992
EXTT0=
EXTT1=
EXTT2=
EXTT3=
EXTT4=
EXTT5=
EXTT6=
EXTT7=
PLAYORDER=
